<svg id="Splash_v1_1" data-name="Splash v1 – 1" xmlns="http://www.w3.org/2000/svg" xmlns:xlink="http://www.w3.org/1999/xlink" width="431" height="812" viewBox="0 0 431 812">
  <defs>
    <clipPath id="clip-path">
      <rect id="Rectangle_327" data-name="Rectangle 327" width="431" height="812"/>
    </clipPath>
    <linearGradient id="linear-gradient" x1="0.5" x2="0.5" y2="1" gradientUnits="objectBoundingBox">
      <stop offset="0" stop-color="#849dfe"/>
      <stop offset="0.957" stop-color="#e9f7e7"/>
      <stop offset="1" stop-color="#424f7f"/>
    </linearGradient>
    <linearGradient id="linear-gradient-2" x1="0.5" x2="0.5" y2="1" gradientUnits="objectBoundingBox">
      <stop offset="0" stop-color="#e1f3d5"/>
      <stop offset="1" stop-color="#849dfe"/>
    </linearGradient>
    <linearGradient id="linear-gradient-3" x1="0.5" x2="0.5" y2="1" gradientUnits="objectBoundingBox">
      <stop offset="0" stop-color="#aca4fe"/>
      <stop offset="1" stop-color="#ddf2db"/>
    </linearGradient>
  </defs>
  <g id="Splash_v1_1-2" data-name="Splash v1 – 1" opacity="0.5" clip-path="url(#clip-path)">
    <rect id="Rectangle_326" data-name="Rectangle 326" width="431" height="812" fill="rgba(255,255,255,0)"/>
    <g id="Waimakariri" transform="translate(-323.578 -143.329)">
      <path id="Shape" d="M93.69,186.634c53.761,0,93.033-41.652,93.033-93.033S141.135-5.786,93.69.568-6.5,37.43.656,93.6,39.929,186.634,93.69,186.634Z" transform="matrix(0.777, 0.629, -0.629, 0.777, 345.66, 48.998)" fill="url(#linear-gradient)"/>
      <path id="Shape-2" data-name="Shape" d="M38.692,77.113c22.2,0,38.421-17.21,38.421-38.441S58.286-2.39,38.692.234-2.686,15.465.271,38.672,16.49,77.113,38.692,77.113Z" transform="matrix(0.777, 0.629, -0.629, 0.777, 517.4, 758.904)" fill="#d2eefe"/>
      <path id="Shape-3" data-name="Shape" d="M12.663,25.311c6.976.425,12.031-5,12.631-12.6S19.639-.934,12.663.119.552,5.494.031,12.715,5.687,24.886,12.663,25.311Z" transform="matrix(-0.914, 0.407, -0.407, -0.914, 597.937, 809.766)" fill="#e0e6fe"/>
      <path id="Shape-4" data-name="Shape" d="M25.41,50.641A24.835,24.835,0,0,0,50.641,25.4C50.641,11.456,38.278-1.57,25.41.154S-1.764,10.156.178,25.4,10.829,50.641,25.41,50.641Z" transform="matrix(0.777, 0.629, -0.629, 0.777, 544.677, 391.956)" fill="#b6b6b6"/>
      <path id="Shape-5" data-name="Shape" d="M11.549,23.019a11.288,11.288,0,0,0,11.47-11.475C23.019,5.207,17.4-.714,11.549.07S-.8,4.616.081,11.544,4.922,23.019,11.549,23.019Z" transform="matrix(0.777, 0.629, -0.629, 0.777, 588.728, 424.618)" fill="#b6b6b6"/>
      <path id="Shape-6" data-name="Shape" d="M101.818,203.525c56.1,3.415,96.736-40.216,101.57-101.283S157.914-7.508,101.818.96,4.44,44.172.248,102.243,45.722,200.111,101.818,203.525Z" transform="matrix(0.777, 0.629, -0.629, 0.777, 487.324, 471.913)" fill="#c1cefe"/>
      <path id="Shape-7" data-name="Shape" d="M12.656,25.3c6.972.425,12.024-5,12.625-12.589S19.628-.933,12.656.119.552,5.491.031,12.708,5.684,24.873,12.656,25.3Z" transform="matrix(0.777, 0.629, -0.629, 0.777, 575.322, 693.468)" fill="#849dfe"/>
      <path id="Shape-8" data-name="Shape" d="M6.33,12.651c3.486.212,6.012-2.5,6.312-6.294A5.7,5.7,0,0,0,6.33.059C2.846.583.276,2.747.015,6.356S2.842,12.438,6.33,12.651Z" transform="matrix(0.777, 0.629, -0.629, 0.777, 591.797, 675.899)" fill="#f2f2f2"/>
      <path id="Shape-9" data-name="Shape" d="M12.656,25.3c6.972.425,12.024-5,12.625-12.589S19.628-.933,12.656.119.552,5.491.031,12.708,5.684,24.873,12.656,25.3Z" transform="matrix(0.777, 0.629, -0.629, 0.777, 315.512, 331.517)" fill="#d1edfe"/>
      <path id="Shape-10" data-name="Shape" d="M157.966,316.041c78.983,0,147.891-70.6,157.966-157.679S250.444-8.223,157.966.684,0,71.279,0,158.362,78.983,316.041,157.966,316.041Z" transform="matrix(0.777, 0.629, -0.629, 0.777, 278.04, 652.441)" fill="#a5ddfe"/>
      <path id="Shape-11" data-name="Shape" d="M11.562,22.9c6.079-1.106,11.457-5.129,11.457-11.452A11.452,11.452,0,0,0,11.562,0C5.237,0,1.107,5.782.1,11.452S5.482,24,11.562,22.9Z" transform="matrix(0.777, 0.629, -0.629, 0.777, 913.912, 237.427)" fill="#fff"/>
      <path id="Shape-12" data-name="Shape" d="M71.328,0a71.328,71.328,0,0,1,71.328,71.328c0,39.393-4.6,85.717,0,123.894s-31.947,76.1-71.328,71.328S0,239.152,0,195.222V71.328C0,28.161,31.935,0,71.328,0Z" transform="matrix(0.777, 0.629, -0.629, 0.777, 678.595, 31.31)" fill="#ffead8"/>
      <g id="Group_257" data-name="Group 257" transform="translate(-396 -62)">
        <path id="Shape-13" data-name="Shape" d="M117.016,231.339c61.53-11.15,115.957-51.787,115.957-115.669S181.057,0,117.016,0,11.206,58.406,1.059,115.669,55.486,242.488,117.016,231.339Z" transform="matrix(0.777, 0.629, -0.629, 0.777, 920.562, 57.58)" fill="url(#linear-gradient-2)"/>
        <path id="Shape-14" data-name="Shape" d="M161.661,0c87.787,0,144.883,70.428,158.953,158.921s0,191.83,0,276.042S255.071,593.884,161.661,593.884-6.672,519.341,2.708,434.963s-9.38-184.967,0-276.042S73.873,0,161.661,0Z" transform="matrix(0.777, 0.629, -0.629, 0.777, 937.871, 534.089)" fill="url(#linear-gradient-3)"/>
        <path id="Shape-15" data-name="Shape" d="M64.1,127.754c36.783,0,63.653-28.512,63.653-63.683S96.564-3.96,64.1.388-4.45,25.622.449,64.072,27.319,127.754,64.1,127.754Z" transform="matrix(0.777, 0.629, -0.629, 0.777, 838.691, 204.314)" fill="#bab0fe"/>
        <path id="Shape-16" data-name="Shape" d="M38.543,77.042C59.777,78.334,75.161,61.819,76.991,38.7S59.777-2.842,38.543.364,1.681,16.721.094,38.7,17.308,75.749,38.543,77.042Z" transform="matrix(0.777, 0.629, -0.629, 0.777, 926.453, 592.114)" fill="#6f8eff"/>
        <path id="Shape-17" data-name="Shape" d="M12.656,25.3c6.972.425,12.024-5,12.625-12.589S19.628-.933,12.656.119.552,5.491.031,12.708,5.684,24.873,12.656,25.3Z" transform="matrix(0.777, 0.629, -0.629, 0.777, 1101.875, 675.629)" fill="#c4d0fe"/>
        <path id="Shape-18" data-name="Shape" d="M38.543,77.042C59.777,78.334,75.161,61.819,76.991,38.7S59.777-2.842,38.543.364,1.681,16.721.094,38.7,17.308,75.749,38.543,77.042Z" transform="matrix(0.777, 0.629, -0.629, 0.777, 760.247, 456.784)" fill="#d1edfe"/>
        <path id="Shape-19" data-name="Shape" d="M12.656,25.3c6.972.425,12.024-5,12.625-12.589S19.628-.933,12.656.119.552,5.491.031,12.708,5.684,24.873,12.656,25.3Z" transform="matrix(0.777, 0.629, -0.629, 0.777, 892.3, 772.977)" fill="#c4d0fe"/>
        <path id="Shape-20" data-name="Shape" d="M12.656,25.3c6.972.425,12.024-5,12.625-12.589S19.628-.933,12.656.119.552,5.491.031,12.708,5.684,24.873,12.656,25.3Z" transform="matrix(-0.454, 0.891, -0.891, -0.454, 761.107, 559.573)" fill="#8b8b8b"/>
        <path id="Shape-21" data-name="Shape" d="M38.543,77.042C59.777,78.334,75.161,61.819,76.991,38.7S59.777-2.842,38.543.364,1.681,16.721.094,38.7,17.308,75.749,38.543,77.042Z" transform="matrix(0.777, 0.629, -0.629, 0.777, 1144.084, 354.926)" fill="#e0e0e0"/>
        <path id="Shape-22" data-name="Shape" d="M117.932,0c64.042,0,105.7,51.389,115.957,115.957s0,139.97,0,201.414S186.076,433.328,117.932,433.328-4.867,378.937,1.975,317.371s-6.842-134.961,0-201.414S53.891,0,117.932,0Z" transform="matrix(0.777, 0.629, -0.629, 0.777, 856.58, 364.662)" fill="#c1cefe"/>
        <path id="Shape-23" data-name="Shape" d="M52.061,104.064C80.744,105.81,101.524,83.5,104,52.278S80.744-3.839,52.061.491,2.27,22.585.127,52.277,23.378,102.318,52.061,104.064Z" transform="matrix(0.777, 0.629, -0.629, 0.777, 704.328, 311.694)" fill="#a5ddfe"/>
        <path id="Shape-24" data-name="Shape" d="M142.666,285.17c78.6,4.784,135.545-56.348,142.318-141.911S221.266-10.52,142.666,1.345,6.223,61.891.347,143.258,64.067,280.386,142.666,285.17Z" transform="matrix(0.777, 0.629, -0.629, 0.777, 1027.873, 721.264)" fill="#8ba3fe"/>
        <path id="Shape-25" data-name="Shape" d="M19.077,37.787c10.031-1.82,18.9-8.459,18.9-18.894A18.9,18.9,0,0,0,19.077,0C8.637,0,1.827,9.54.173,18.893S9.046,39.608,19.077,37.787Z" transform="matrix(0.777, 0.629, -0.629, 0.777, 926.468, 328.445)" fill="#fff"/>
      </g>
    </g>
  </g>
</svg>
