<svg id="Texture" xmlns="http://www.w3.org/2000/svg" width="431.131" height="841" viewBox="0 0 431.131 841">
  <g id="Texture_Right" data-name="Texture Right" transform="translate(36.039 290.105)">
    <path id="Shape" d="M0,27.094A27.092,27.092,0,0,1,27.091,0V27.094Z" transform="translate(308.546 249.252)" fill="#e2e2e2"/>
    <path id="Shape-2" data-name="Shape" d="M13.472,27.094a13.435,13.435,0,0,1-9.526-3.968,13.567,13.567,0,0,1,4.371-22.1A13.408,13.408,0,0,1,13.472,0V27.094Z" transform="translate(381.619 222.451)" fill="#b9b9b9"/>
    <path id="Shape-3" data-name="Shape" d="M0,0A27.152,27.152,0,0,1,10.367,2.057a27.1,27.1,0,0,1,8.789,5.857,27.016,27.016,0,0,1,5.873,8.766,26.956,26.956,0,0,1,0,20.681,27.017,27.017,0,0,1-5.873,8.766,27.1,27.1,0,0,1-8.789,5.857A27.153,27.153,0,0,1,0,54.042V0Z" transform="translate(340.909 222.305)" fill="#e2e2e2"/>
    <path id="Shape-4" data-name="Shape" d="M27.091,27.094a27.1,27.1,0,0,0-2.062-10.368,27.1,27.1,0,0,0-5.873-8.79,27.093,27.093,0,0,0-8.789-5.873A27.086,27.086,0,0,0,0,0V27.094Z" transform="translate(340.909 314.132)" fill="#e2e2e2"/>
    <path id="Shape-5" data-name="Shape" d="M27.091,54.042A27.021,27.021,0,1,1,27.091,0V54.042Z" transform="translate(308.546 314.132)" fill="#e2e2e2"/>
    <path id="Shape-6" data-name="Shape" d="M27.091,0a27.021,27.021,0,1,0,0,54.042V0Z" transform="translate(368 281.912)" fill="#e6e6e6"/>
    <path id="Shape-7" data-name="Shape" d="M54.036,0a27.16,27.16,0,0,1-2.057,10.368,27.1,27.1,0,0,1-5.857,8.79,27.015,27.015,0,0,1-8.765,5.873,26.948,26.948,0,0,1-20.679,0,27.017,27.017,0,0,1-8.765-5.873,27.1,27.1,0,0,1-5.857-8.79A27.157,27.157,0,0,1,0,0H54.036Z" transform="translate(308.693 281.766)" fill="#e2e2e2"/>
    <path id="Shape-8" data-name="Shape" d="M0,13.547A13.546,13.546,0,0,0,13.546,27.094H27.091V0H13.546A13.546,13.546,0,0,0,0,13.547Z" transform="translate(368 341.372)" fill="#8d8d8d"/>
    <ellipse id="Shape-9" data-name="Shape" cx="10.763" cy="10.764" rx="10.763" ry="10.764" transform="translate(314.111 222.451)" fill="#f1f1f1"/>
    <ellipse id="Shape-10" data-name="Shape" cx="10.763" cy="10.764" rx="10.763" ry="10.764" transform="translate(373.565 254.818)" fill="#8d8d8d"/>
    <ellipse id="Shape-11" data-name="Shape" cx="10.763" cy="10.764" rx="10.763" ry="10.764" transform="translate(341.202 346.938)" fill="#e2e2e2"/>
    <path id="Shape-12" data-name="Shape" d="M13.472,0A13.436,13.436,0,0,0,3.946,3.968a13.567,13.567,0,0,0,4.371,22.1,13.407,13.407,0,0,0,5.156,1.031Z" transform="translate(381.18 395.854)" fill="#161616"/>
    <path id="Shape-13" data-name="Shape" d="M0,27.094a13.411,13.411,0,0,0,5.156-1.031,13.473,13.473,0,0,0,4.371-2.936,13.558,13.558,0,0,0,2.92-4.4,13.616,13.616,0,0,0,1.026-5.184,13.616,13.616,0,0,0-1.026-5.184,13.557,13.557,0,0,0-2.92-4.4A13.473,13.473,0,0,0,5.156,1.031,13.411,13.411,0,0,0,0,0Z" transform="translate(368 464.486)" fill="#161616"/>
    <path id="Shape-14" data-name="Shape" d="M0,0A27.158,27.158,0,0,0,2.057,10.369a27.1,27.1,0,0,0,5.857,8.79,27.015,27.015,0,0,0,8.765,5.873,26.947,26.947,0,0,0,20.678,0,27.015,27.015,0,0,0,8.765-5.873,27.1,27.1,0,0,0,5.857-8.79A27.158,27.158,0,0,0,54.036,0Z" transform="translate(340.616 374.325)" fill="#f4f4f4"/>
    <path id="Shape-15" data-name="Shape" d="M0,0A27.157,27.157,0,0,0,2.057,10.368a27.1,27.1,0,0,0,5.857,8.79,27.017,27.017,0,0,0,8.765,5.873,26.947,26.947,0,0,0,20.678,0,27.017,27.017,0,0,0,8.765-5.873,27.1,27.1,0,0,0,5.857-8.79A27.157,27.157,0,0,0,54.036,0Z" transform="translate(308.4 464.486)" fill="#f4f4f4"/>
    <path id="Shape-16" data-name="Shape" d="M0,54.042a27.149,27.149,0,0,0,10.367-2.057,27.1,27.1,0,0,0,8.789-5.858,27.02,27.02,0,0,0,5.873-8.766,26.956,26.956,0,0,0,0-20.681,27.02,27.02,0,0,0-5.873-8.766,27.1,27.1,0,0,0-8.789-5.858A27.149,27.149,0,0,0,0,0Z" transform="translate(368 496.853)" fill="#868686"/>
    <path id="Shape-17" data-name="Shape" d="M54.036,27.094A27.009,27.009,0,0,0,2.057,16.726,27.158,27.158,0,0,0,0,27.094Z" transform="translate(313.525 401.273)" fill="#f4f4f4"/>
    <path id="Shape-18" data-name="Shape" d="M0,27.094H27.091V0A27.094,27.094,0,0,0,0,27.094Z" transform="translate(335.638 496.852)" fill="#f4f4f4"/>
    <path id="Shape-19" data-name="Shape" d="M27.091,27.094H0V0A27.085,27.085,0,0,1,10.367,2.062a27.1,27.1,0,0,1,8.789,5.873,27.1,27.1,0,0,1,5.873,8.79A27.093,27.093,0,0,1,27.091,27.094Z" transform="translate(308.4 428.367)" fill="#f4f4f4"/>
    <path id="Shape-20" data-name="Shape" d="M13.546,27.094A13.546,13.546,0,0,0,27.091,13.547V0H0V13.547A13.546,13.546,0,0,0,13.546,27.094Z" transform="translate(307.961 374.325)" fill="#f4f4f4"/>
    <path id="Shape-21" data-name="Shape" d="M10.763,21.529A10.764,10.764,0,1,1,21.526,10.764,10.764,10.764,0,0,1,10.763,21.529Z" transform="translate(341.056 433.786)" fill="#f4f4f4"/>
    <g id="Group_42" data-name="Group 42" transform="translate(307.961 0)">
      <path id="Shape-22" data-name="Shape" d="M0,27.094A27.092,27.092,0,0,1,27.091,0V27.094Z" transform="translate(0.586 26.948)" fill="#e6e6e6"/>
      <path id="Shape-23" data-name="Shape" d="M13.472,27.094a13.435,13.435,0,0,1-9.526-3.968,13.567,13.567,0,0,1,4.371-22.1A13.408,13.408,0,0,1,13.472,0V27.094Z" transform="translate(73.659 0.146)" fill="#b9b9b9"/>
      <path id="Shape-24" data-name="Shape" d="M0,0A27.152,27.152,0,0,1,10.367,2.057a27.1,27.1,0,0,1,8.789,5.857,27.016,27.016,0,0,1,5.873,8.766,26.956,26.956,0,0,1,0,20.681,27.017,27.017,0,0,1-5.873,8.766,27.1,27.1,0,0,1-8.789,5.857A27.153,27.153,0,0,1,0,54.042V0Z" transform="translate(32.949 0)" fill="#e2e2e2"/>
      <path id="Shape-25" data-name="Shape" d="M27.091,27.094a27.1,27.1,0,0,0-2.062-10.368,27.1,27.1,0,0,0-5.873-8.79,27.093,27.093,0,0,0-8.789-5.873A27.086,27.086,0,0,0,0,0V27.094Z" transform="translate(32.949 91.827)" fill="#161616"/>
      <path id="Shape-26" data-name="Shape" d="M27.091,54.042A27.021,27.021,0,1,1,27.091,0V54.042Z" transform="translate(0.586 91.827)" fill="#f5f5f5"/>
      <path id="Shape-27" data-name="Shape" d="M27.091,0a27.021,27.021,0,1,0,0,54.042V0Z" transform="translate(60.04 59.607)" fill="#e6e6e6"/>
      <path id="Shape-28" data-name="Shape" d="M54.036,0a27.16,27.16,0,0,1-2.057,10.368,27.1,27.1,0,0,1-5.857,8.79,27.015,27.015,0,0,1-8.765,5.873,26.948,26.948,0,0,1-20.679,0,27.017,27.017,0,0,1-8.765-5.873,27.1,27.1,0,0,1-5.857-8.79A27.157,27.157,0,0,1,0,0H54.036Z" transform="translate(0.732 59.461)" fill="#e2e2e2"/>
      <path id="Shape-29" data-name="Shape" d="M0,13.547A13.546,13.546,0,0,0,13.546,27.094H27.091V0H13.546A13.546,13.546,0,0,0,0,13.547Z" transform="translate(60.04 119.068)" fill="#8d8d8d"/>
      <ellipse id="Shape-30" data-name="Shape" cx="10.763" cy="10.764" rx="10.763" ry="10.764" transform="translate(6.15 0.146)" fill="#e2e2e2"/>
      <ellipse id="Shape-31" data-name="Shape" cx="10.763" cy="10.764" rx="10.763" ry="10.764" transform="translate(65.605 32.513)" fill="#8d8d8d"/>
      <ellipse id="Shape-32" data-name="Shape" cx="10.763" cy="10.764" rx="10.763" ry="10.764" transform="translate(33.242 124.633)" fill="#dadada"/>
      <path id="Shape-33" data-name="Shape" d="M13.472,0A13.436,13.436,0,0,0,3.946,3.968a13.567,13.567,0,0,0,4.371,22.1,13.407,13.407,0,0,0,5.156,1.031Z" transform="translate(73.219 173.549)" fill="#161616"/>
      <path id="Shape-34" data-name="Shape" d="M0,0A27.158,27.158,0,0,0,2.057,10.369a27.1,27.1,0,0,0,5.857,8.79,27.015,27.015,0,0,0,8.765,5.873,26.947,26.947,0,0,0,20.678,0,27.015,27.015,0,0,0,8.765-5.873,27.1,27.1,0,0,0,5.857-8.79A27.158,27.158,0,0,0,54.036,0Z" transform="translate(32.656 152.02)" fill="#b9b9b9"/>
      <path id="Shape-35" data-name="Shape" d="M54.036,27.094A27.009,27.009,0,0,0,2.057,16.726,27.158,27.158,0,0,0,0,27.094Z" transform="translate(5.565 178.968)" fill="#f5f5f5"/>
      <path id="Shape-36" data-name="Shape" d="M0,27.094H27.091V0A27.094,27.094,0,0,0,0,27.094Z" transform="translate(59.601 206.062)" fill="#8d8d8d"/>
      <path id="Shape-37" data-name="Shape" d="M13.546,27.094A13.546,13.546,0,0,0,27.091,13.547V0H0V13.547A13.546,13.546,0,0,0,13.546,27.094Z" transform="translate(0 152.02)" fill="#f5f5f5"/>
    </g>
  </g>
  <g id="Texture_left" data-name="Texture left" transform="translate(0)">
    <path id="Shape-38" data-name="Shape" d="M65.671,32.928A32.824,32.824,0,0,0,2.5,20.327,33,33,0,0,0,0,32.928H65.671Z" transform="translate(0 64.61)" fill="#aeaeae"/>
    <path id="Shape-39" data-name="Shape" d="M0,65.679a33,33,0,0,0,12.6-2.5A32.932,32.932,0,0,0,23.281,56.06a32.837,32.837,0,0,0,7.137-10.654,32.761,32.761,0,0,0,0-25.134A32.836,32.836,0,0,0,23.281,9.618,32.932,32.932,0,0,0,12.6,2.5,33,33,0,0,0,0,0V65.679Z" transform="translate(0 0.178)" fill="#d5d5d5"/>
    <path id="Shape-40" data-name="Shape" d="M32.925,32.928a32.917,32.917,0,0,1-12.6-2.506A32.929,32.929,0,0,1,9.644,23.284,32.933,32.933,0,0,1,2.506,12.6,32.927,32.927,0,0,1,0,0H32.925Z" transform="translate(39.332 144.884)" fill="#ddd"/>
    <path id="Shape-41" data-name="Shape" d="M0,0A32.917,32.917,0,0,1,12.6,2.506,32.929,32.929,0,0,1,23.281,9.645a32.933,32.933,0,0,1,7.137,10.683,32.927,32.927,0,0,1,2.506,12.6H0Z" transform="translate(0 105.192)" fill="#ddd"/>
    <path id="Shape-42" data-name="Shape" d="M0,32.928A32.926,32.926,0,0,1,32.925,0V32.928Z" transform="translate(39.332 0.356)" fill="#d5d5d5"/>
    <path id="Shape-43" data-name="Shape" d="M0,16.464A16.463,16.463,0,0,1,16.462,0H32.925V32.928H16.462A16.463,16.463,0,0,1,0,16.464Z" transform="translate(0 144.884)" fill="#ddd"/>
    <path id="Shape-44" data-name="Shape" d="M0,16.464A16.463,16.463,0,0,0,16.462,32.928H32.925V0H16.462A16.463,16.463,0,0,0,0,16.464Z" transform="translate(39.332 105.371)" fill="#ddd"/>
    <ellipse id="Shape-45" data-name="Shape" cx="13.081" cy="13.082" rx="13.081" ry="13.082" transform="translate(46.094 39.692)" fill="#aeaeae"/>
    <path id="Shape-46" data-name="Shape" d="M0,0A16.3,16.3,0,0,1,6.266,1.253a16.369,16.369,0,0,1,5.312,3.569,16.471,16.471,0,0,1,3.549,5.341,16.543,16.543,0,0,1,1.246,6.3,16.543,16.543,0,0,1-1.246,6.3,16.471,16.471,0,0,1-3.549,5.341,16.368,16.368,0,0,1-5.312,3.569A16.3,16.3,0,0,1,0,32.928Z" transform="translate(78.663 144.528)" fill="#aeaeae"/>
    <path id="Shape-47" data-name="Shape" d="M0,65.679V0A33,33,0,0,1,12.6,2.5,32.934,32.934,0,0,1,23.281,9.619a32.836,32.836,0,0,1,7.137,10.654,32.76,32.76,0,0,1,0,25.134A32.835,32.835,0,0,1,23.281,56.06,32.933,32.933,0,0,1,12.6,63.179,33,33,0,0,1,0,65.679Z" transform="translate(78.663 39.336)" fill="#a2a2a2"/>
    <path id="Shape-48" data-name="Shape" d="M32.925,16.464A16.463,16.463,0,0,1,16.462,32.928H0V0H16.462A16.463,16.463,0,0,1,32.925,16.464Z" transform="translate(78.663)" fill="#a2a2a2"/>
    <path id="Shape-49" data-name="Shape" d="M13.081,0A13.082,13.082,0,1,1,0,13.082,13.082,13.082,0,0,1,13.081,0Z" transform="translate(78.663 111.956)" fill="#aeaeae"/>
    <path id="Shape-50" data-name="Shape" d="M0,0H32.925V32.928a32.918,32.918,0,0,1-12.6-2.506A32.927,32.927,0,0,1,9.643,23.284,32.931,32.931,0,0,1,2.506,12.6,32.931,32.931,0,0,1,0,0Z" transform="translate(32.925 217.682)" fill="#a3a3a3"/>
    <path id="Shape-51" data-name="Shape" d="M0,0A32.995,32.995,0,0,1,12.6,2.5,32.935,32.935,0,0,1,23.281,9.619a32.838,32.838,0,0,1,7.137,10.654,32.76,32.76,0,0,1,0,25.134A32.838,32.838,0,0,1,23.281,56.06,32.935,32.935,0,0,1,12.6,63.179,32.995,32.995,0,0,1,0,65.679Z" transform="translate(72.256 184.932)" fill="#d5d5d5"/>
    <path id="Shape-52" data-name="Shape" d="M0,65.679V0A33,33,0,0,1,12.6,2.5,32.934,32.934,0,0,1,23.281,9.619a32.836,32.836,0,0,1,7.137,10.654,32.76,32.76,0,0,1,0,25.134A32.835,32.835,0,0,1,23.281,56.06,32.933,32.933,0,0,1,12.6,63.179,33,33,0,0,1,0,65.679Z" transform="translate(0 224.446)" fill="#d5d5d5"/>
    <path id="Shape-53" data-name="Shape" d="M32.925,16.464A16.463,16.463,0,0,1,16.462,32.928H0V0H16.462A16.463,16.463,0,0,1,32.925,16.464Z" transform="translate(0 184.932)" fill="#a3a3a3"/>
    <path id="Shape-54" data-name="Shape" d="M13.081,0A13.082,13.082,0,1,1,0,13.082,13.082,13.082,0,0,1,13.081,0Z" transform="translate(39.332 184.932)" fill="#a3a3a3"/>
  </g>
</svg>
